@startuml

interface Activity {

Project ownerProject
String name
long startTime
long endTime
long duration

void acceptVisitor(Visitor visitor)
void setName(final String activityName)
String getName()
void setOwnerProject(final Project project)
Project getOwnerProject()
void setEndTime(final long endingTime)
void setStartTime(final long startingTime)
long getStartTime()
void setDuration(final long milliseconds)
long getDuration()
}

class Project extends Activity {
private List<Activity> activities

Project(final Project ownerProject, final String projectName)
long getDuration()
void acceptVisitor(final Visitor visitor)
void addActivity(final Activity activity)
void removeActivity(final Activity activity)
void start(final long time)
void stop()
boolean hasRunningTasks()
ArrayList<Activity> getActivities()

}

Project o-- Activity

abstract class Task extends Activity {

List<Interval> intervals
addInterval(final Interval interval)
void removeInterval(final Interval interval)
List<Interval> getIntervals()
void setIntervals(final List<Interval> intervalList)
Task getTask()
boolean isRunning()
void start()

}




class TaskImpl extends Task {

TaskImpl(final Project ownerProject, final String taskName)
long getDuration()
void acceptVisitor(Visitor visitor)
void start()
void stop()
boolean isRunning()

}

class PreprogrammedTask extends TaskDecorator {

long startTime

PreprogrammedTask(final Task task, final long milliseconds)
long getStartTime()

}

abstract class TaskDecorator extends Task {

Task task

TaskDecorator(final Task decoratedTask)
Task getTask()
void setStartTime(final long milliseconds)
void setEndTime(final long milliseconds)
long getStartTime()
long getEndTime()
long getDuration()
acceptVisitor(final Visitor visitor)
start()
isRunning()

}

TaskDecorator o-- Task

interface Visitor {

void visitProject(Project project);
void visitTask(Task task);
void propertyChange(final PropertyChangeEvent propertyChangeEvent);

}

class Printer implements Visitor {
Project rootProject

Printer(final Project project)
void visitProject(final Project project)
void visitTask(final Task task)
void propertyChange(final PropertyChangeEvent propertyChangeEvent)
void printHeader()
}

class Interval {
long startTime
long endTime
long duration


Interval(final long startTime, final long finishTime)
Interval(final long startTime)
long getDuration()
void stop()
void setStartTime(final long milliseconds)
void setEndTime(final long milliseconds)
long getStartTime()
long getEndTime()
void propertyChange(final PropertyChangeEvent propertyChangeEvent)

}

Interval --* Task


class Clock {
Date currentTime;
PropertyChangeSupport support;
ScheduledExecutorService executor;
static Clock instance;

Clock()
static Clock getInstance()
getCurrentTime()
void addPropertyChangeListener(final PropertyChangeListener pcl)
void removePropertyChangeListener(final PropertyChangeListener pcl)
void tick()
run()

}

class Time {

static final int HOURS_IN_DAY
static final int MINUTES_IN_HOUR
static final int SECONDS_IN_MINUTE
static final int MILLISECONDS_IN_SECOND

Time()
long getDays(final long milliseconds)
long getHours(final long milliseconds)
long getMinutes(final long milliseconds)
long getSeconds(final long milliseconds)
long setDays(final int days)
long setHours(final int hours)
long setMinutes(final int minutes)
long setSeconds(final int seconds)
String getDateAndTime(final long milliseconds)
String getTime(final long milliseconds)

}


class limitedTask extends TaskDecorator {
long endTime

LimitedTask(final Task task, final long milliseconds)
long getEndTime()
void start()
Project getOwnerProject()

}

class Client {

void main()

testA1()
testA2()
decoratorTest()

}

Printer *-- Project

Client -- Clock
Clock -- Interval
Client -- Printer

Time -- Printer
Time --Client


abstract class Report {

private List<Project> projects
private Format format
private List<Element> elements
private long startTime
private long endTime

abstract void createReport(Format reportFormat, long start, long end)
public long getStartTime()
public long getEndTime()
void makeBriefReport(final Format reportFormat, final String title, final long start, final long end)
void writeToFile()
List<Project> getProjects()
void setProjects(final List<Project> rootProjects)
List<Element> getElements()
void setElements(final List<Element> reportElements)
Format getFormat()

}

class BriefReport extends Report {

BriefReport(final List<Project> rootProjects)
void createReport(final Format reportFormat, final long start, final long end)

}

class detailedReport extends Report {

DetailedReport(final List<Project> rootProjects)
void createReport(final Format reportFormat, final long start, final long end)


}


interface Element {
void accept(Format format)
}

class Title implements Element {
private String title

Title(final String titleName)
String getTitle()
public void accept(final Format format)

}

class Table implements Element {

private String name;
private List<String> content;
private int columnCount;

private Table(final String tableName, final int columns)
List<String> getContent()
int getColumnCount()
String getName()
public void accept(final Format format)
static Table createPeriodTable(final Report report)
static Table createProjectTable(final long reportStartTime, final long reportEndTime, final List<Project> rootProjects)
static Table createSubprojectTable(final long reportStartTime, final long reportEndTime, final List<Project> rootProjects)
static Table createTaskTable(final long reportStartTime, final long reportEndTime, final List<Project> rootProjects)
static Table createIntervalTable(final long reportStartTime, final long reportEndTime, final List<Project> rootProjects)
private static boolean shouldBeIncluded(final Activity activity, final long startTime, final long endTime)
private static boolean shouldBeIncluded(final Interval interval, final long startTime, final long endTime)

}

class Separator implements Element {

private static final int LENGTH = 99;
private String separator;

Separator()
String getSeparator()
public void accept(final Format format)
}


abstract class Format {

private PrintWriter writer;

abstract void visit(Title title);
abstract void visit(Separator separator);
abstract void visit(Table table);

void finishPrinting()
PrintWriter getWriter()
void setWriter(final PrintWriter printWriter)

}


class HTML extends Format {
HTML()
public void visit(final Title title)
public void visit(final Separator separator)
public void visit(final Table table)


}

class Text extends Format {
Text()
public void visit(final Title title)
public void visit(final Separator separator)
public void visit(final Table table)

}

Report *-- Element
Report o-- Format
Report o-- Project

@enduml